<?xml version="1.0" encoding="utf-8"?>
<!-- Generator: Adobe Illustrator 21.1.0, SVG Export Plug-In . SVG Version: 6.00 Build 0)  -->
<svg version="1.1" id="" xmlns="http://www.w3.org/2000/svg" xmlns:xlink="http://www.w3.org/1999/xlink" x="0px" y="0px" style="height:28px; width:28px;"
	 viewBox="0 0 28 28" style="enable-background:new 0 0 28 28;" xml:space="preserve">
<style type="text/css">
	.st0{fill:#17AAED;}
	.st1{fill:none;stroke:#17AAED;stroke-miterlimit:10;}
</style>
<g>
	<g>
		<path class="st0" d="M5.3,1c2.2,0,3.9,1.8,3.9,3.9S7.5,8.9,5.3,8.9S1.4,7.1,1.4,4.9S3.1,1,5.3,1 M5.3,0C2.6,0,0.4,2.2,0.4,4.9
			s2.2,4.9,4.9,4.9s4.9-2.2,4.9-4.9S8,0,5.3,0L5.3,0z"/>
	</g>
	<line class="st1" x1="14" y1="0" x2="14" y2="28"/>
	<line class="st1" x1="0.3" y1="14" x2="27.7" y2="14"/>
	<g>
		<line class="st1" x1="18.3" y1="0.4" x2="27.4" y2="9.5"/>
		<line class="st1" x1="18.3" y1="9.5" x2="27.4" y2="0.4"/>
	</g>
	<line class="st1" x1="0.5" y1="22.5" x2="10.3" y2="22.5"/>
	<g>
		<line class="st1" x1="17.9" y1="24.1" x2="27.7" y2="24.1"/>
		<line class="st1" x1="17.9" y1="20.9" x2="27.7" y2="20.9"/>
	</g>
</g>
</svg>
