<?xml version="1.0" encoding="utf-8"?>
<!-- Generator: Adobe Illustrator 21.1.0, SVG Export Plug-In . SVG Version: 6.00 Build 0)  -->
<svg version="1.1" id="main_style" xmlns="http://www.w3.org/2000/svg" xmlns:xlink="http://www.w3.org/1999/xlink" height = "28px"  width = "28px" x="0px" y="0px"
	 viewBox="0 0 28 28" style="enable-background:new 0 0 28 28;" xml:space="preserve">
<path d="M14.3,3.3C20.2,3.3,25,8.1,25,14s-4.8,10.7-10.7,10.7c-2.3,0-4.5-0.7-6.3-2.1l-1.3-0.9l-1.4,0.5l0.6-1.4l-0.8-1.3
	c-1-1.6-1.5-3.5-1.5-5.4C3.7,8.1,8.5,3.3,14.3,3.3 M14.3,0.3C6.8,0.3,0.7,6.5,0.7,14c0,2.6,0.7,4.9,1.9,7C1.1,24.6,0,27.1,0,27.1
	s2.7-0.9,6.2-2c2.3,1.7,5.1,2.7,8.1,2.7C21.9,27.7,28,21.5,28,14S21.9,0.3,14.3,0.3L14.3,0.3z"/>
<path d="M12.9,15.5v-0.6c0-0.5,0.1-0.9,0.3-1.2c0.2-0.3,0.5-0.7,1-1c0.4-0.2,0.7-0.5,0.9-0.7c0.2-0.2,0.3-0.4,0.3-0.7
	c0-0.2-0.1-0.4-0.3-0.5s-0.4-0.2-0.7-0.2c-0.7,0-1.6,0.3-2.6,0.8l-1-2c1.2-0.7,2.5-1,3.8-1c1.1,0,1.9,0.2,2.6,0.7
	c0.6,0.5,0.9,1.1,0.9,2c0,0.6-0.1,1.1-0.4,1.5c-0.3,0.4-0.7,0.8-1.3,1.2c-0.5,0.3-0.8,0.6-1,0.7c-0.1,0.2-0.2,0.3-0.2,0.5v0.4H12.9z
	 M12.6,18.1c0-0.4,0.1-0.8,0.4-1s0.6-0.4,1.2-0.4c0.5,0,0.9,0.1,1.1,0.4c0.3,0.2,0.4,0.6,0.4,1c0,0.4-0.1,0.8-0.4,1
	s-0.6,0.4-1.1,0.4c-0.5,0-0.9-0.1-1.1-0.4C12.7,18.9,12.6,18.5,12.6,18.1z"/>
</svg>
